<svg width="28" height="29" viewBox="0 0 28 29" fill="none" xmlns="http://www.w3.org/2000/svg">
<path d="M27.6512 6.03875C27.5105 5.87014 27.3344 5.7345 27.1355 5.6414C26.9366 5.54831 26.7196 5.50004 26.5 5.5H6.75L6.06625 1.73125C6.00335 1.38585 5.82128 1.07345 5.55176 0.848468C5.28223 0.623485 4.94233 0.50017 4.59125 0.5H1.5C1.10218 0.5 0.720644 0.658035 0.43934 0.93934C0.158035 1.22064 0 1.60218 0 2C0 2.39782 0.158035 2.77936 0.43934 3.06066C0.720644 3.34196 1.10218 3.5 1.5 3.5H3.33875L6.4525 20.625C6.5361 21.0799 6.70901 21.5136 6.96125 21.9013C6.51468 22.4238 6.2103 23.0525 6.07745 23.7269C5.9446 24.4013 5.98777 25.0986 6.2028 25.7514C6.41783 26.4042 6.79746 26.9907 7.30508 27.4541C7.81269 27.9175 8.43116 28.2423 9.10084 28.3972C9.77051 28.5521 10.4688 28.5317 11.1283 28.3382C11.7879 28.1447 12.3864 27.7844 12.8662 27.2923C13.346 26.8001 13.6909 26.1926 13.8676 25.5283C14.0443 24.8641 14.0468 24.1655 13.875 23.5H18.125C17.9165 24.3076 17.9656 25.1603 18.2656 25.9386C18.5656 26.7169 19.1014 27.382 19.7981 27.8407C20.4947 28.2995 21.3174 28.529 22.1509 28.4971C22.9844 28.4652 23.7871 28.1735 24.4467 27.6629C25.1062 27.1523 25.5897 26.4482 25.8293 25.6492C26.069 24.8503 26.0529 23.9964 25.7833 23.207C25.5136 22.4177 25.004 21.7324 24.3256 21.247C23.6473 20.7616 22.8341 20.5004 22 20.5H9.89625C9.77935 20.4999 9.6662 20.4588 9.57645 20.3839C9.48671 20.309 9.42604 20.205 9.405 20.09L9.115 18.5H23.0125C23.8324 18.5 24.6262 18.2122 25.2555 17.6868C25.8849 17.1614 26.3098 16.4317 26.4562 15.625L27.9762 7.2675C28.0153 7.05138 28.0065 6.82932 27.9503 6.617C27.8942 6.40468 27.7921 6.20728 27.6512 6.03875ZM11 24.5C11 24.6978 10.9413 24.8911 10.8315 25.0556C10.7216 25.22 10.5654 25.3482 10.3827 25.4239C10.2 25.4996 9.99889 25.5194 9.80491 25.4808C9.61093 25.4422 9.43274 25.347 9.29289 25.2071C9.15304 25.0673 9.0578 24.8891 9.01921 24.6951C8.98063 24.5011 9.00043 24.3 9.07612 24.1173C9.15181 23.9346 9.27998 23.7784 9.44443 23.6685C9.60888 23.5586 9.80222 23.5 10 23.5C10.2652 23.5 10.5196 23.6054 10.7071 23.7929C10.8946 23.9804 11 24.2348 11 24.5ZM22 25.5C21.8022 25.5 21.6089 25.4414 21.4444 25.3315C21.28 25.2216 21.1518 25.0654 21.0761 24.8827C21.0004 24.7 20.9806 24.4989 21.0192 24.3049C21.0578 24.1109 21.153 23.9327 21.2929 23.7929C21.4327 23.653 21.6109 23.5578 21.8049 23.5192C21.9989 23.4806 22.2 23.5004 22.3827 23.5761C22.5654 23.6518 22.7216 23.78 22.8315 23.9444C22.9414 24.1089 23 24.3022 23 24.5C23 24.7652 22.8946 25.0196 22.7071 25.2071C22.5196 25.3946 22.2652 25.5 22 25.5ZM23.5 15.09C23.4791 15.2044 23.419 15.3078 23.33 15.3827C23.241 15.4575 23.1287 15.499 23.0125 15.5H8.57L7.2975 8.5H24.7025L23.5 15.09Z" fill="#EEEEEE"/>
</svg>
