<svg width="19" height="19" viewBox="0 0 19 19" fill="none" xmlns="http://www.w3.org/2000/svg">
<path d="M18.1897 4.92969L14.2825 1.02345C13.9546 0.695653 13.51 0.511505 13.0463 0.511505C12.5827 0.511505 12.138 0.695653 11.8101 1.02345L1.02862 11.8041C0.865702 11.966 0.736528 12.1586 0.648585 12.3708C0.560643 12.583 0.515681 12.8106 0.516303 13.0403V16.9474C0.516303 17.4111 0.700523 17.8559 1.02844 18.1838C1.35635 18.5117 1.8011 18.6959 2.26484 18.6959H16.9526C17.2308 18.6959 17.4977 18.5854 17.6944 18.3887C17.8912 18.1919 18.0017 17.9251 18.0017 17.6468C18.0017 17.3686 17.8912 17.1017 17.6944 16.905C17.4977 16.7082 17.2308 16.5977 16.9526 16.5977H8.99671L18.1897 7.403C18.3521 7.24062 18.481 7.04783 18.5689 6.83564C18.6568 6.62345 18.702 6.39602 18.702 6.16634C18.702 5.93666 18.6568 5.70923 18.5689 5.49704C18.481 5.28485 18.3521 5.09206 18.1897 4.92969ZM6.0242 16.5977H2.61455V13.188L9.95841 5.84417L13.3681 9.25382L6.0242 16.5977ZM14.8543 7.76757L11.4447 4.35792L13.0481 2.75451L16.4577 6.16416L14.8543 7.76757Z" fill="#22C55E"/>
</svg>
