<svg width="27" height="24" viewBox="0 0 27 24" fill="none" xmlns="http://www.w3.org/2000/svg">
<path d="M27 22C27 22.3978 26.842 22.7794 26.5607 23.0607C26.2794 23.342 25.8978 23.5 25.5 23.5H1.5C1.10218 23.5 0.720644 23.342 0.43934 23.0607C0.158035 22.7794 0 22.3978 0 22V2C0 1.60218 0.158035 1.22064 0.43934 0.93934C0.720644 0.658035 1.10218 0.5 1.5 0.5C1.89782 0.5 2.27936 0.658035 2.56066 0.93934C2.84196 1.22064 3 1.60218 3 2V14.375L8.43875 8.935C8.57811 8.79516 8.7437 8.68421 8.92602 8.6085C9.10835 8.53279 9.30383 8.49382 9.50125 8.49382C9.69867 8.49382 9.89415 8.53279 10.0765 8.6085C10.2588 8.68421 10.4244 8.79516 10.5638 8.935L13.5 11.875L18.875 6.5H17.5C17.1022 6.5 16.7206 6.34196 16.4393 6.06066C16.158 5.77936 16 5.39782 16 5C16 4.60218 16.158 4.22064 16.4393 3.93934C16.7206 3.65804 17.1022 3.5 17.5 3.5H22.5C22.8978 3.5 23.2794 3.65804 23.5607 3.93934C23.842 4.22064 24 4.60218 24 5V10C24 10.3978 23.842 10.7794 23.5607 11.0607C23.2794 11.342 22.8978 11.5 22.5 11.5C22.1022 11.5 21.7206 11.342 21.4393 11.0607C21.158 10.7794 21 10.3978 21 10V8.625L14.5613 15.065C14.4219 15.2048 14.2563 15.3158 14.074 15.3915C13.8917 15.4672 13.6962 15.5062 13.4987 15.5062C13.3013 15.5062 13.1058 15.4672 12.9235 15.3915C12.7412 15.3158 12.5756 15.2048 12.4362 15.065L9.5 12.125L3 18.625V20.5H25.5C25.8978 20.5 26.2794 20.658 26.5607 20.9393C26.842 21.2206 27 21.6022 27 22Z" fill="white"/>
</svg>
