<svg width="27" height="28" viewBox="0 0 27 28" fill="none" xmlns="http://www.w3.org/2000/svg">
<path d="M12.7687 16.1675C12.6318 15.9612 12.4461 15.792 12.228 15.675C12.0099 15.5579 11.7662 15.4967 11.5187 15.4967C11.2711 15.4967 11.0275 15.5579 10.8094 15.675C10.5913 15.792 10.4055 15.9612 10.2687 16.1675L8.39367 18.9775L7.55618 17.7162C7.41795 17.5093 7.2304 17.3399 7.01042 17.2235C6.79043 17.1071 6.54494 17.0472 6.29606 17.0494C6.04718 17.0515 5.80274 17.1155 5.58476 17.2356C5.36678 17.3557 5.18212 17.5282 5.04742 17.7375L0.257425 25.1887C0.11175 25.4153 0.0297684 25.6769 0.0200884 25.9461C0.0104085 26.2153 0.0733877 26.4821 0.202412 26.7185C0.331437 26.955 0.521746 27.1523 0.753354 27.2898C0.984962 27.4273 1.24932 27.4999 1.51867 27.5H17.5187C17.7904 27.5004 18.0571 27.427 18.2904 27.2876C18.5237 27.1482 18.7147 26.948 18.843 26.7085C18.9714 26.469 19.0323 26.1991 19.0192 25.9277C19.0061 25.6563 18.9195 25.3935 18.7687 25.1675L12.7687 16.1675ZM4.26867 24.5L6.33117 21.2875L7.14993 22.5138C7.28675 22.72 7.4725 22.8892 7.69061 23.0063C7.90871 23.1233 8.1524 23.1846 8.39993 23.1846C8.64746 23.1846 8.89114 23.1233 9.10924 23.0063C9.32735 22.8892 9.5131 22.72 9.64993 22.5138L11.5249 19.7038L14.7162 24.5H4.26867ZM25.5799 7.93875L18.5799 0.938751C18.4405 0.799499 18.275 0.689078 18.0929 0.613796C17.9109 0.538514 17.7157 0.499846 17.5187 0.5H5.51867C4.85563 0.5 4.21975 0.763393 3.75091 1.23223C3.28207 1.70107 3.01867 2.33696 3.01867 3V13.5C3.01867 13.8978 3.17671 14.2794 3.45801 14.5607C3.73932 14.842 4.12085 15 4.51867 15C4.9165 15 5.29803 14.842 5.57934 14.5607C5.86064 14.2794 6.01867 13.8978 6.01867 13.5V3.5H15.5187V9.5C15.5187 9.89782 15.6767 10.2794 15.958 10.5607C16.2393 10.842 16.6208 11 17.0187 11H23.0187V24.5C22.6208 24.5 22.2393 24.658 21.958 24.9393C21.6767 25.2206 21.5187 25.6022 21.5187 26C21.5187 26.3978 21.6767 26.7794 21.958 27.0607C22.2393 27.342 22.6208 27.5 23.0187 27.5H23.5187C24.1817 27.5 24.8176 27.2366 25.2864 26.7678C25.7553 26.2989 26.0187 25.663 26.0187 25V9C26.0188 8.80296 25.9802 8.60782 25.9049 8.42573C25.8296 8.24363 25.7192 8.07816 25.5799 7.93875ZM18.5187 5.125L21.3937 8H18.5187V5.125Z" fill="#22C55E"/>
</svg>
