<svg width="25" height="20" viewBox="0 0 25 20" fill="none" xmlns="http://www.w3.org/2000/svg">
<path d="M25 10C25 10.3978 24.842 10.7794 24.5607 11.0607C24.2794 11.342 23.8978 11.5 23.5 11.5H1.5C1.10218 11.5 0.720644 11.342 0.43934 11.0607C0.158035 10.7794 0 10.3978 0 10C0 9.60218 0.158035 9.22064 0.43934 8.93934C0.720644 8.65804 1.10218 8.5 1.5 8.5H23.5C23.8978 8.5 24.2794 8.65804 24.5607 8.93934C24.842 9.22064 25 9.60218 25 10ZM1.5 3.5H23.5C23.8978 3.5 24.2794 3.34196 24.5607 3.06066C24.842 2.77936 25 2.39782 25 2C25 1.60218 24.842 1.22064 24.5607 0.93934C24.2794 0.658035 23.8978 0.5 23.5 0.5H1.5C1.10218 0.5 0.720644 0.658035 0.43934 0.93934C0.158035 1.22064 0 1.60218 0 2C0 2.39782 0.158035 2.77936 0.43934 3.06066C0.720644 3.34196 1.10218 3.5 1.5 3.5ZM23.5 16.5H1.5C1.10218 16.5 0.720644 16.658 0.43934 16.9393C0.158035 17.2206 0 17.6022 0 18C0 18.3978 0.158035 18.7794 0.43934 19.0607C0.720644 19.342 1.10218 19.5 1.5 19.5H23.5C23.8978 19.5 24.2794 19.342 24.5607 19.0607C24.842 18.7794 25 18.3978 25 18C25 17.6022 24.842 17.2206 24.5607 16.9393C24.2794 16.658 23.8978 16.5 23.5 16.5Z" fill="white"/>
</svg>
