<svg width="23" height="18" viewBox="0 0 23 18" fill="none" xmlns="http://www.w3.org/2000/svg">
<path d="M22.4711 8.95211C22.4711 9.29763 22.3339 9.629 22.0895 9.87332C21.8452 10.1176 21.5138 10.2549 21.1683 10.2549H2.06075C1.71523 10.2549 1.38386 10.1176 1.13954 9.87332C0.895223 9.629 0.757965 9.29763 0.757965 8.95211C0.757965 8.60659 0.895223 8.27522 1.13954 8.0309C1.38386 7.78658 1.71523 7.64932 2.06075 7.64932H21.1683C21.5138 7.64932 21.8452 7.78658 22.0895 8.0309C22.3339 8.27522 22.4711 8.60659 22.4711 8.95211ZM2.06075 3.30669H21.1683C21.5138 3.30669 21.8452 3.16943 22.0895 2.92511C22.3339 2.68079 22.4711 2.34942 22.4711 2.0039C22.4711 1.65838 22.3339 1.32701 22.0895 1.08269C21.8452 0.838368 21.5138 0.701111 21.1683 0.701111H2.06075C1.71523 0.701111 1.38386 0.838368 1.13954 1.08269C0.895223 1.32701 0.757965 1.65838 0.757965 2.0039C0.757965 2.34942 0.895223 2.68079 1.13954 2.92511C1.38386 3.16943 1.71523 3.30669 2.06075 3.30669ZM21.1683 14.5975H2.06075C1.71523 14.5975 1.38386 14.7348 1.13954 14.9791C0.895223 15.2234 0.757965 15.5548 0.757965 15.9003C0.757965 16.2458 0.895223 16.5772 1.13954 16.8215C1.38386 17.0658 1.71523 17.2031 2.06075 17.2031H21.1683C21.5138 17.2031 21.8452 17.0658 22.0895 16.8215C22.3339 16.5772 22.4711 16.2458 22.4711 15.9003C22.4711 15.5548 22.3339 15.2234 22.0895 14.9791C21.8452 14.7348 21.5138 14.5975 21.1683 14.5975Z" fill="#22C55E"/>
</svg>
