<svg width="27" height="30" viewBox="0 0 27 30" fill="none" xmlns="http://www.w3.org/2000/svg">
<path d="M25.7 6.83L14.7 0.808747C14.3324 0.606427 13.9196 0.500336 13.5 0.500336C13.0804 0.500336 12.6676 0.606427 12.3 0.808747L1.3 6.83C0.906397 7.04536 0.578004 7.36268 0.349271 7.74866C0.120538 8.13465 -0.000103799 8.57508 6.701e-08 9.02375V20.9762C-0.000103799 21.4249 0.120538 21.8653 0.349271 22.2513C0.578004 22.6373 0.906397 22.9546 1.3 23.17L12.3 29.1912C12.6675 29.3938 13.0804 29.5 13.5 29.5C13.9196 29.5 14.3325 29.3938 14.7 29.1912L25.7 23.17C26.0936 22.9546 26.422 22.6373 26.6507 22.2513C26.8795 21.8653 27.0001 21.4249 27 20.9762V9.02375C27.0001 8.57508 26.8795 8.13465 26.6507 7.74866C26.422 7.36268 26.0936 7.04536 25.7 6.83ZM13.5 3.57125L22.5 8.5L19.8213 9.96625L10.8212 5.03875L13.5 3.57125ZM13.5 13.425L4.5 8.5L7.695 6.75L16.695 11.6762L13.5 13.425ZM3 11.0987L12 16.0237V25.6075L3 20.68V11.0987ZM15 25.6075V16.0237L18 14.3825V18C18 18.3978 18.158 18.7794 18.4393 19.0607C18.7206 19.342 19.1022 19.5 19.5 19.5C19.8978 19.5 20.2794 19.342 20.5607 19.0607C20.842 18.7794 21 18.3978 21 18V12.74L24 11.0987V20.68L15 25.6075Z" fill="#EEEEEE"/>
</svg>
