<svg width="29" height="28" viewBox="0 0 29 28" fill="none" xmlns="http://www.w3.org/2000/svg">
<path d="M14.5 7.5C13.2144 7.5 11.9577 7.88122 10.8888 8.59545C9.81986 9.30968 8.98673 10.3248 8.49476 11.5126C8.00279 12.7003 7.87407 14.0072 8.12488 15.2681C8.37568 16.529 8.99475 17.6872 9.90379 18.5962C10.8128 19.5052 11.971 20.1243 13.2319 20.3751C14.4928 20.6259 15.7997 20.4972 16.9874 20.0052C18.1751 19.5132 19.1903 18.6801 19.9045 17.6112C20.6188 16.5423 21 15.2856 21 14C20.998 12.2767 20.3125 10.6246 19.094 9.406C17.8754 8.18744 16.2233 7.50199 14.5 7.5ZM14.5 17.5C13.8077 17.5 13.1311 17.2947 12.5555 16.9101C11.9799 16.5256 11.5313 15.9789 11.2664 15.3394C11.0015 14.6999 10.9322 13.9961 11.0672 13.3172C11.2023 12.6383 11.5356 12.0146 12.0251 11.5251C12.5146 11.0356 13.1382 10.7023 13.8172 10.5673C14.4961 10.4322 15.1998 10.5015 15.8394 10.7664C16.4789 11.0313 17.0255 11.4799 17.4101 12.0555C17.7947 12.6311 18 13.3078 18 14C18 14.9283 17.6312 15.8185 16.9749 16.4749C16.3185 17.1313 15.4282 17.5 14.5 17.5ZM26 14.0988V13.9013L27.75 11.7125C27.8969 11.5291 27.9986 11.3138 28.0471 11.0838C28.0955 10.8539 28.0892 10.6158 28.0287 10.3888C27.7129 9.19763 27.2409 8.05354 26.625 6.98625C26.5063 6.78273 26.3414 6.61001 26.1436 6.4821C25.9457 6.35419 25.7205 6.27467 25.4862 6.25L22.7012 5.9375L22.5625 5.79875L22.25 3.0125C22.2251 2.77843 22.1455 2.55349 22.0176 2.35588C21.8897 2.15827 21.7171 1.99354 21.5137 1.875C20.4464 1.25711 19.3018 0.783405 18.11 0.466251C17.8827 0.406674 17.6446 0.401313 17.4149 0.450599C17.1852 0.499885 16.9703 0.60244 16.7875 0.750001L14.5987 2.5H14.4012L12.2125 0.750001C12.0291 0.603103 11.8137 0.501344 11.5838 0.452926C11.3539 0.404508 11.1158 0.410785 10.8887 0.471251C9.6973 0.789015 8.55319 1.26314 7.48623 1.88125C7.2835 1.9993 7.11128 2.16325 6.98341 2.35994C6.85554 2.55662 6.77559 2.78056 6.74998 3.01375L6.43748 5.79875L6.29873 5.9375L3.51248 6.25C3.27841 6.27486 3.05347 6.35446 2.85586 6.48237C2.65825 6.61027 2.49352 6.78288 2.37498 6.98625C1.75883 8.05388 1.28681 9.19841 0.971231 10.39C0.910971 10.6169 0.9048 10.8547 0.953214 11.0844C1.00163 11.3141 1.10328 11.5292 1.24998 11.7125L2.99998 13.9013V14.0988L1.24998 16.2875C1.10308 16.4709 1.00132 16.6862 0.952905 16.9162C0.904487 17.1461 0.910764 17.3842 0.971231 17.6113C1.28939 18.8027 1.76393 19.9469 2.38248 21.0138C2.5004 21.2163 2.66416 21.3884 2.86062 21.5163C3.05707 21.6442 3.28076 21.7242 3.51373 21.75L6.29873 22.06L6.43748 22.1988L6.74998 24.9875C6.77484 25.2216 6.85444 25.4465 6.98235 25.6441C7.11025 25.8417 7.28286 26.0065 7.48623 26.125C8.5536 26.7429 9.69815 27.2166 10.89 27.5338C11.1172 27.5933 11.3553 27.5987 11.585 27.5494C11.8147 27.5001 12.0297 27.3976 12.2125 27.25L14.4012 25.5H14.5987L16.7875 27.25C16.9709 27.3969 17.1862 27.4987 17.4161 27.5471C17.6461 27.5955 17.8842 27.5892 18.1112 27.5288C19.3023 27.213 20.4464 26.7409 21.5137 26.125C21.7169 26.0072 21.8896 25.8434 22.018 25.6467C22.1463 25.45 22.2266 25.2259 22.2525 24.9925L22.5625 22.2075L22.7012 22.0688L25.4875 21.75C25.7209 21.7241 25.945 21.6438 26.1417 21.5155C26.3384 21.3872 26.5022 21.2145 26.62 21.0113C27.2379 19.9439 27.7116 18.7993 28.0287 17.6075C28.0886 17.381 28.0945 17.1436 28.0461 16.9144C27.9977 16.6852 27.8963 16.4705 27.75 16.2875L26 14.0988ZM22.985 13.4875C23.005 13.8289 23.005 14.1711 22.985 14.5125C22.9626 14.8836 23.0789 15.2498 23.3112 15.54L24.9162 17.5463C24.7647 17.9947 24.5839 18.4327 24.375 18.8575L21.8212 19.1413C21.4515 19.1835 21.1107 19.3617 20.865 19.6413C20.6379 19.8971 20.3958 20.1392 20.14 20.3663C19.8605 20.6119 19.6823 20.9528 19.64 21.3225L19.3575 23.875C18.9328 24.0848 18.4948 24.2664 18.0462 24.4188L16.04 22.8125C15.7737 22.6001 15.4431 22.4846 15.1025 22.485C15.0725 22.485 15.0425 22.485 15.0125 22.485C14.6711 22.505 14.3289 22.505 13.9875 22.485C13.6166 22.463 13.2507 22.5788 12.96 22.81L10.9537 24.4163C10.5053 24.2647 10.0672 24.0839 9.64248 23.875L9.35873 21.3213C9.31646 20.9515 9.13825 20.6107 8.85873 20.365C8.6029 20.1379 8.36081 19.8958 8.13373 19.64C7.88804 19.3605 7.54722 19.1823 7.17748 19.14L4.62498 18.8575C4.41519 18.4328 4.23355 17.9948 4.08123 17.5463L5.68623 15.54C5.91855 15.2498 6.03482 14.8836 6.01248 14.5125C5.99248 14.1711 5.99248 13.8289 6.01248 13.4875C6.03482 13.1164 5.91855 12.7502 5.68623 12.46L4.08373 10.4538C4.23524 10.0053 4.41605 9.56726 4.62498 9.1425L7.17873 8.85875C7.54847 8.81648 7.88929 8.63827 8.13498 8.35875C8.36206 8.10292 8.60415 7.86083 8.85998 7.63375C9.1395 7.38806 9.31771 7.04724 9.35998 6.6775L9.64248 4.125C10.0672 3.91521 10.5052 3.73357 10.9537 3.58125L12.96 5.1875C13.2507 5.41874 13.6166 5.53447 13.9875 5.5125C14.3289 5.4925 14.6711 5.4925 15.0125 5.5125C15.3834 5.53519 15.7496 5.41938 16.04 5.1875L18.0462 3.58125C18.4948 3.73357 18.9328 3.91521 19.3575 4.125L19.6412 6.67875C19.6835 7.04849 19.8617 7.38931 20.1412 7.635C20.3971 7.86208 20.6392 8.10417 20.8662 8.36C21.1119 8.63952 21.4527 8.81773 21.8225 8.86L24.375 9.1425C24.5848 9.5672 24.7664 10.0052 24.9187 10.4538L23.3137 12.46C23.0805 12.7499 22.9633 13.1161 22.985 13.4875Z" fill="white"/>
</svg>
