<svg width="19" height="21" viewBox="0 0 19 21" fill="none" xmlns="http://www.w3.org/2000/svg">
<path d="M14.4555 12.5595C13.5186 12.558 12.6137 12.9002 11.9122 13.5212L8.34433 11.2306C8.56579 10.501 8.56579 9.72206 8.34433 8.99246L11.9122 6.70187C12.6067 7.3122 13.4984 7.65086 14.423 7.65541C15.3475 7.65996 16.2425 7.33009 16.9429 6.72663C17.6434 6.12316 18.102 5.2868 18.2343 4.37177C18.3666 3.45673 18.1636 2.52472 17.6627 1.7476C17.1618 0.970478 16.3969 0.400649 15.5089 0.143187C14.6209 -0.114276 13.6698 -0.0420104 12.8309 0.346658C11.992 0.735327 11.322 1.41419 10.9442 2.25806C10.5665 3.10194 10.5067 4.05392 10.7757 4.93847L7.20691 7.22643C6.65193 6.73597 5.96717 6.41615 5.23486 6.30538C4.50255 6.19461 3.75383 6.2976 3.07862 6.60198C2.40342 6.90636 1.83044 7.39919 1.42849 8.02127C1.02655 8.64336 0.812744 9.36826 0.812744 10.1089C0.812744 10.8495 1.02655 11.5744 1.42849 12.1965C1.83044 12.8186 2.40342 13.3114 3.07862 13.6158C3.75383 13.9202 4.50255 14.0232 5.23486 13.9124C5.96717 13.8016 6.65193 13.4818 7.20691 12.9914L10.7748 15.2872C10.5394 16.0614 10.5541 16.8902 10.8169 17.6556C11.0798 18.4209 11.5772 19.0839 12.2386 19.5502C12.9 20.0165 13.6916 20.2624 14.5008 20.2528C15.3099 20.2432 16.0955 19.9787 16.7456 19.4969C17.3958 19.015 17.8774 18.3404 18.122 17.5691C18.3667 16.7977 18.3618 15.9688 18.1081 15.2004C17.8544 14.4319 17.3649 13.7631 16.7091 13.2889C16.0533 12.8148 15.2647 12.5595 14.4555 12.5595ZM14.4555 2.06824C14.8013 2.06824 15.1394 2.17079 15.4269 2.36293C15.7145 2.55506 15.9386 2.82814 16.0709 3.14765C16.2033 3.46715 16.2379 3.81872 16.1704 4.15791C16.1029 4.49709 15.9364 4.80865 15.6919 5.05319C15.4473 5.29772 15.1358 5.46426 14.7966 5.53172C14.4574 5.59919 14.1058 5.56456 13.7863 5.43222C13.4668 5.29988 13.1937 5.07576 13.0016 4.78822C12.8095 4.50067 12.7069 4.16261 12.7069 3.81678C12.7069 3.35304 12.8912 2.90829 13.2191 2.58038C13.547 2.25246 13.9917 2.06824 14.4555 2.06824ZM4.66366 11.8601C4.31783 11.8601 3.97977 11.7575 3.69222 11.5654C3.40468 11.3732 3.18056 11.1002 3.04822 10.7807C2.91588 10.4612 2.88125 10.1096 2.94872 9.7704C3.01619 9.43121 3.18272 9.11965 3.42726 8.87512C3.67179 8.63058 3.98335 8.46405 4.32254 8.39658C4.66172 8.32911 5.01329 8.36374 5.3328 8.49608C5.6523 8.62842 5.92538 8.85254 6.11752 9.14009C6.30965 9.42763 6.4122 9.76569 6.4122 10.1115C6.4122 10.5753 6.22798 11.02 5.90006 11.3479C5.57215 11.6758 5.1274 11.8601 4.66366 11.8601ZM14.4555 18.1548C14.1096 18.1548 13.7716 18.0522 13.484 17.8601C13.1965 17.668 12.9724 17.3949 12.84 17.0754C12.7077 16.7559 12.6731 16.4043 12.7405 16.0651C12.808 15.726 12.9745 15.4144 13.2191 15.1699C13.4636 14.9253 13.7752 14.7588 14.1144 14.6913C14.4535 14.6239 14.8051 14.6585 15.1246 14.7908C15.4441 14.9232 15.7172 15.1473 15.9093 15.4348C16.1015 15.7224 16.204 16.0604 16.204 16.4063C16.204 16.87 16.0198 17.3147 15.6919 17.6427C15.364 17.9706 14.9192 18.1548 14.4555 18.1548Z" fill="#22C55E"/>
</svg>
