<svg width="26" height="28" viewBox="0 0 26 28" fill="none" xmlns="http://www.w3.org/2000/svg">
<path d="M23.5187 5H19.0187V3.5C19.0187 2.57174 18.6499 1.6815 17.9936 1.02513C17.3372 0.368749 16.4469 0 15.5187 0H9.51868C8.59042 0 7.70018 0.368749 7.0438 1.02513C6.38743 1.6815 6.01868 2.57174 6.01868 3.5V5H1.51868C1.12085 5 0.739321 5.15804 0.458017 5.43934C0.176712 5.72064 0.0186768 6.10218 0.0186768 6.5C0.0186768 6.89782 0.176712 7.27936 0.458017 7.56066C0.739321 7.84196 1.12085 8 1.51868 8H2.01868V25C2.01868 25.663 2.28207 26.2989 2.75091 26.7678C3.21975 27.2366 3.85564 27.5 4.51868 27.5H20.5187C21.1817 27.5 21.8176 27.2366 22.2864 26.7678C22.7553 26.2989 23.0187 25.663 23.0187 25V8H23.5187C23.9165 8 24.298 7.84196 24.5793 7.56066C24.8606 7.27936 25.0187 6.89782 25.0187 6.5C25.0187 6.10218 24.8606 5.72064 24.5793 5.43934C24.298 5.15804 23.9165 5 23.5187 5ZM9.01868 3.5C9.01868 3.36739 9.07135 3.24021 9.16512 3.14645C9.25889 3.05268 9.38607 3 9.51868 3H15.5187C15.6513 3 15.7785 3.05268 15.8722 3.14645C15.966 3.24021 16.0187 3.36739 16.0187 3.5V5H9.01868V3.5ZM20.0187 24.5H5.01868V8H20.0187V24.5ZM11.0187 12V20C11.0187 20.3978 10.8606 20.7794 10.5793 21.0607C10.298 21.342 9.9165 21.5 9.51868 21.5C9.12085 21.5 8.73932 21.342 8.45802 21.0607C8.17671 20.7794 8.01868 20.3978 8.01868 20V12C8.01868 11.6022 8.17671 11.2206 8.45802 10.9393C8.73932 10.658 9.12085 10.5 9.51868 10.5C9.9165 10.5 10.298 10.658 10.5793 10.9393C10.8606 11.2206 11.0187 11.6022 11.0187 12ZM17.0187 12V20C17.0187 20.3978 16.8606 20.7794 16.5793 21.0607C16.298 21.342 15.9165 21.5 15.5187 21.5C15.1209 21.5 14.7393 21.342 14.458 21.0607C14.1767 20.7794 14.0187 20.3978 14.0187 20V12C14.0187 11.6022 14.1767 11.2206 14.458 10.9393C14.7393 10.658 15.1209 10.5 15.5187 10.5C15.9165 10.5 16.298 10.658 16.5793 10.9393C16.8606 11.2206 17.0187 11.6022 17.0187 12Z" fill="#E11D48"/>
</svg>
