<svg width="22" height="24" viewBox="0 0 22 24" fill="none" xmlns="http://www.w3.org/2000/svg">
<path d="M20.4351 4.26683H16.0925V3.3983C16.0925 2.70726 15.818 2.04452 15.3293 1.55588C14.8407 1.06724 14.1779 0.792725 13.4869 0.792725H8.27575C7.58471 0.792725 6.92197 1.06724 6.43333 1.55588C5.94469 2.04452 5.67017 2.70726 5.67017 3.3983V4.26683H1.32754C1.09719 4.26683 0.876281 4.35833 0.7134 4.52121C0.55052 4.68409 0.459015 4.90501 0.459015 5.13535C0.459015 5.3657 0.55052 5.58661 0.7134 5.74949C0.876281 5.91237 1.09719 6.00388 1.32754 6.00388H2.19607V21.6373C2.19607 22.098 2.37908 22.5399 2.70484 22.8656C3.0306 23.1914 3.47242 23.3744 3.93312 23.3744H17.8295C18.2902 23.3744 18.7321 23.1914 19.0578 22.8656C19.3836 22.5399 19.5666 22.098 19.5666 21.6373V6.00388H20.4351C20.6655 6.00388 20.8864 5.91237 21.0493 5.74949C21.2121 5.58661 21.3036 5.3657 21.3036 5.13535C21.3036 4.90501 21.2121 4.68409 21.0493 4.52121C20.8864 4.35833 20.6655 4.26683 20.4351 4.26683ZM9.14428 17.2947C9.14428 17.5251 9.05277 17.746 8.88989 17.9089C8.72701 18.0717 8.5061 18.1632 8.27575 18.1632C8.0454 18.1632 7.82449 18.0717 7.66161 17.9089C7.49873 17.746 7.40722 17.5251 7.40722 17.2947V10.3465C7.40722 10.1162 7.49873 9.89525 7.66161 9.73237C7.82449 9.56949 8.0454 9.47798 8.27575 9.47798C8.5061 9.47798 8.72701 9.56949 8.88989 9.73237C9.05277 9.89525 9.14428 10.1162 9.14428 10.3465V17.2947ZM14.3554 17.2947C14.3554 17.5251 14.2639 17.746 14.101 17.9089C13.9382 18.0717 13.7173 18.1632 13.4869 18.1632C13.2566 18.1632 13.0356 18.0717 12.8728 17.9089C12.7099 17.746 12.6184 17.5251 12.6184 17.2947V10.3465C12.6184 10.1162 12.7099 9.89525 12.8728 9.73237C13.0356 9.56949 13.2566 9.47798 13.4869 9.47798C13.7173 9.47798 13.9382 9.56949 14.101 9.73237C14.2639 9.89525 14.3554 10.1162 14.3554 10.3465V17.2947ZM14.3554 4.26683H7.40722V3.3983C7.40722 3.16795 7.49873 2.94704 7.66161 2.78416C7.82449 2.62128 8.0454 2.52978 8.27575 2.52978H13.4869C13.7173 2.52978 13.9382 2.62128 14.101 2.78416C14.2639 2.94704 14.3554 3.16795 14.3554 3.3983V4.26683Z" fill="#22C55E"/>
</svg>
