<svg width="27" height="28" viewBox="0 0 27 28" fill="none" xmlns="http://www.w3.org/2000/svg">
<path d="M13.5 0.5C10.83 0.5 8.21987 1.29176 5.99981 2.77516C3.77974 4.25856 2.04942 6.36697 1.02763 8.83377C0.00584936 11.3006 -0.261496 14.015 0.259405 16.6337C0.780305 19.2525 2.06606 21.6579 3.95406 23.5459C5.84207 25.434 8.24754 26.7197 10.8663 27.2406C13.485 27.7615 16.1994 27.4942 18.6662 26.4724C21.133 25.4506 23.2414 23.7203 24.7248 21.5002C26.2082 19.2801 27 16.67 27 14C26.996 10.4208 25.5724 6.98932 23.0416 4.45844C20.5107 1.92756 17.0792 0.50397 13.5 0.5ZM7.44626 22.5713C8.1426 21.6191 9.05371 20.8447 10.1056 20.3108C11.1574 19.7769 12.3204 19.4987 13.5 19.4987C14.6796 19.4987 15.8426 19.7769 16.8944 20.3108C17.9463 20.8447 18.8574 21.6191 19.5538 22.5713C17.7845 23.826 15.669 24.5 13.5 24.5C11.331 24.5 9.21553 23.826 7.44626 22.5713ZM10 13C10 12.3078 10.2053 11.6311 10.5899 11.0555C10.9744 10.4799 11.5211 10.0313 12.1606 9.76642C12.8002 9.50151 13.5039 9.4322 14.1828 9.56725C14.8618 9.7023 15.4854 10.0356 15.9749 10.5251C16.4644 11.0146 16.7977 11.6383 16.9328 12.3172C17.0678 12.9961 16.9985 13.6999 16.7336 14.3394C16.4687 14.9789 16.0201 15.5256 15.4445 15.9101C14.8689 16.2947 14.1922 16.5 13.5 16.5C12.5717 16.5 11.6815 16.1313 11.0251 15.4749C10.3688 14.8185 10 13.9283 10 13ZM21.75 20.4925C20.7778 19.2559 19.5385 18.2551 18.125 17.565C19.0259 16.6527 19.6368 15.4944 19.881 14.2358C20.1252 12.9772 19.9917 11.6744 19.4974 10.4915C19.003 9.30853 18.1699 8.29819 17.1027 7.58757C16.0356 6.87695 14.7821 6.49779 13.5 6.49779C12.2179 6.49779 10.9644 6.87695 9.8973 7.58757C8.83015 8.29819 7.997 9.30853 7.50264 10.4915C7.00828 11.6744 6.8748 12.9772 7.11899 14.2358C7.36319 15.4944 7.97414 16.6527 8.87501 17.565C7.46147 18.2551 6.22224 19.2559 5.25001 20.4925C4.02881 18.9444 3.26819 17.0838 3.0552 15.1236C2.84221 13.1634 3.18546 11.1828 4.04567 9.40859C4.90587 7.63437 6.24827 6.13822 7.91918 5.09139C9.5901 4.04457 11.522 3.48938 13.4938 3.48938C15.4655 3.48938 17.3974 4.04457 19.0683 5.09139C20.7392 6.13822 22.0816 7.63437 22.9418 9.40859C23.8021 11.1828 24.1453 13.1634 23.9323 15.1236C23.7193 17.0838 22.9587 18.9444 21.7375 20.4925H21.75Z" fill="white"/>
</svg>
